<?xml version="1.0" encoding="utf-8"?>
<!-- Generator: Adobe Illustrator 25.0.1, SVG Export Plug-In . SVG Version: 6.00 Build 0)  -->
<svg version="1.1" id="圖層_1" xmlns="http://www.w3.org/2000/svg" xmlns:xlink="http://www.w3.org/1999/xlink" x="0px" y="0px"
	 viewBox="0 0 595.3 841.9" style="enable-background:new 0 0 595.3 841.9;" xml:space="preserve">
<style type="text/css">
	.st0{opacity:0.1;fill:none;stroke:#C9CACA;stroke-miterlimit:10;}
	.st1{clip-path:url(#SVGID_2_);}
	.st2{fill:#FFFFFF;}
	.st3{fill:#8D8D8D;}
	.st4{fill:#3277BD;}
	.st5{fill:none;stroke:#E8E8E8;stroke-linejoin:round;}
	.st6{fill:none;}
	.st7{fill:none;stroke:#3277BD;stroke-linejoin:round;}
	.st8{fill:#E8E8E8;}
	.st9{opacity:0;}
	.st10{fill:none;stroke:#F3AAAB;stroke-linejoin:round;}
	.st11{clip-path:url(#SVGID_4_);}
	.st12{fill:none;stroke:#E6E6E5;}
	.st13{fill:#3D3939;}
	.st14{font-family:'NotoSansCJKtc-Medium-B5pc-H';}
	.st15{font-size:17px;}
	.st16{font-family:'NotoSansCJKtc-Regular-B5pc-H';}
	.st17{font-size:11px;}
	.st18{font-size:8px;}
	.st19{fill:#3E3A39;}
	.st20{font-size:14px;}
	.st21{fill:none;stroke:#DCDDDD;stroke-miterlimit:10;}
	.st22{font-family:'NotoSansCJKtc-Bold-B5pc-H';}
	.st23{font-size:12px;}
	.st24{fill:#585757;}
	.st25{font-size:5px;}
	.st26{font-family:'NotoSansCJKtc-DemiLight-B5pc-H';}
	.st27{fill:none;stroke:#585757;stroke-miterlimit:10;}
	.st28{fill:none;stroke:#3E3A39;stroke-miterlimit:10;}
	.st29{clip-path:url(#SVGID_14_);}
	.st30{clip-path:url(#SVGID_18_);}
	.st31{clip-path:url(#SVGID_22_);}
	.st32{fill:#CB171D;}
	.st33{clip-path:url(#SVGID_26_);}
	.st34{clip-path:url(#SVGID_30_);}
	.st35{clip-path:url(#SVGID_34_);}
	.st36{clip-path:url(#SVGID_38_);}
	.st37{clip-path:url(#SVGID_42_);}
	.st38{fill:#595757;}
	.st39{clip-path:url(#SVGID_46_);}
	.st40{fill:#AFAFAF;}
	.st41{fill:#656565;}
	.st42{clip-path:url(#SVGID_48_);}
	.st43{opacity:0.462;fill:#C2C1C1;enable-background:new    ;}
	.st44{fill:none;stroke:#707070;}
	.st45{fill:none;stroke:#E8E8E8;}
	.st46{fill:#E6E6E5;}
	.st47{clip-path:url(#SVGID_50_);}
	.st48{clip-path:url(#SVGID_52_);}
	.st49{opacity:0.1;fill:#E4007F;}
	.st50{opacity:0.6;fill:#E4007F;}
	.st51{opacity:0.2;fill:#E4007F;}
	.st52{clip-path:url(#SVGID_54_);}
	.st53{fill:#C4C3C3;}
	.st54{fill:#4D96D2;}
	.st55{clip-path:url(#SVGID_56_);}
	.st56{fill:none;stroke:#FFFFFF;stroke-width:2;}
	.st57{fill:none;stroke:#4D96D2;stroke-miterlimit:10;}
	.st58{clip-path:url(#SVGID_58_);}
	.st59{clip-path:url(#SVGID_60_);}
	.st60{clip-path:url(#SVGID_62_);}
	.st61{fill:none;stroke:#4D96D2;stroke-linejoin:round;}
	.st62{clip-path:url(#SVGID_64_);}
	.st63{clip-path:url(#SVGID_66_);}
	.st64{clip-path:url(#SVGID_68_);}
</style>
<rect x="203.6" y="51.6" class="st6" width="194.2" height="56.3"/>
<text transform="matrix(1 0 0 1 236.0975 66.5189)"><tspan x="0" y="0" class="st13 st14 st15">馬紹芸（Sally）</tspan><tspan x="27.2" y="16" class="st13 st16 st17">0911-584-871</tspan><tspan x="-16.2" y="32" class="st13 st16 st17">shaoyunma1997@gmail.com</tspan></text>
<image style="overflow:visible;" width="413" height="531" xlink:href="D08E6E68D0A6661C.jpg"  transform="matrix(0.1643 0 0 0.1643 480.3256 47.6445)">
</image>
<rect x="438.9" y="140.4" class="st6" width="110.7" height="14.1"/>
<text transform="matrix(1 0 0 1 463.5176 147.4623)" class="st13 st14 st18">2015年9月-2019年6月</text>
<rect x="460" y="224.6" class="st6" width="89.6" height="10.1"/>
<text transform="matrix(1 0 0 1 463.5176 231.6272)" class="st13 st14 st18">2012年9月-2015年6月</text>
<g>
	<text transform="matrix(1 0 0 1 38.7988 127.0429)" class="st19 st14 st20">教育經歷</text>
	<line class="st21" x1="39.2" y1="134.9" x2="548.2" y2="134.9"/>
</g>
<rect x="38.8" y="142.2" class="st6" width="510.6" height="151.3"/>
<text transform="matrix(1 0 0 1 38.7985 152.7441)"><tspan x="0" y="0" class="st13 st22 st23">銘傳大學</tspan><tspan x="0" y="14" class="st13 st14 st17">商業設計學系</tspan><tspan x="0" y="32.8" class="st24 st14 st25">●  </tspan><tspan x="7.7" y="32.8" class="st24 st26 st17">研習視覺傳達設計，課餘時間自行接案並受教授之邀三次參與產學合作案，在磨練中建立設計與溝通</tspan><tspan x="0" y="51.5" class="st24 st26 st17">方法。選修跨領域設計課程，透過研究與嘗試不同設計媒介，整合自我設計能力，獲得金點新秀設計獎</tspan><tspan x="0" y="70.2" class="st24 st26 st17">。</tspan><tspan x="0" y="103" class="st13 st22 st23">復興高級商工職業學校</tspan><tspan x="0" y="117" class="st13 st14 st17">廣告設計科</tspan><tspan x="0" y="135.8" class="st24 st14 st25">● </tspan><tspan x="6.4" y="135.8" class="st24 st26 st17">啟蒙設計與繪畫，透過紮實的實作課程培養設計完稿能力，在研習各樣繪畫媒材與大型創作中培養出</tspan></text>
<line class="st21" x1="38.5" y1="298.5" x2="547.5" y2="298.5"/>
<g>
	<text transform="matrix(1 0 0 1 38.7986 348.8345)" class="st19 st14 st20">工作與進修經歷</text>
	<line class="st21" x1="38.8" y1="356.7" x2="548.2" y2="356.7"/>
</g>
<rect x="38.8" y="366" class="st6" width="511.6" height="153.6"/>
<text transform="matrix(1 0 0 1 38.799 376.5392)"><tspan x="0" y="0" class="st13 st22 st23">資策會數位教育研究所</tspan><tspan x="0" y="14" class="st13 st14 st17">UI/UX設計班學員（進修）</tspan><tspan x="0" y="32.8" class="st24 st14 st25">● </tspan><tspan x="6.4" y="32.8" class="st24 st26 st17">擁有前端程式撰寫能力（HTML/CSS/JQuery），設計響應式網頁，製作FlowChart與Wireframe並提</tspan><tspan x="0" y="51.5" class="st24 st26 st17">升產品介面設計易用性。主動參與網站開發專案，以敏捷開發模式協助工程師進行網頁視覺構建。</tspan><tspan x="0" y="84.2" class="st13 st22 st23">Neogence 霓淨思</tspan><tspan x="0" y="98.2" class="st13 st14 st17">藝術與設計部助理（正職）</tspan><tspan x="0" y="117" class="st24 st14 st25">● </tspan><tspan x="6.4" y="117" class="st24 st26 st17">協助設計師完成大型電商網站系列視覺，參與品牌15週年設計提案，獨立規劃工廠視覺看板，參與業</tspan><tspan x="0" y="135.8" class="st24 st26 st17">務與客戶端提案設計。</tspan></text>
<rect x="438.9" y="446.2" class="st6" width="110.7" height="14.1"/>
<text transform="matrix(1 0 0 1 458.5576 453.2781)" class="st13 st14 st18">2019年11月-2020年7月</text>
<rect x="438.9" y="362.7" class="st6" width="110.7" height="14.1"/>
<text transform="matrix(1 0 0 1 458.5576 369.7164)" class="st13 st14 st18">2020年8月-2020年11月</text>
<line class="st21" x1="38.5" y1="522" x2="547.5" y2="522"/>
<line class="st21" x1="38.5" y1="579.2" x2="547.5" y2="579.2"/>
<text transform="matrix(1 0 0 1 38.7987 571.2275)" class="st19 st14 st20">社團與服務經歷</text>
<rect x="38.8" y="586.4" class="st6" width="520.1" height="95"/>
<text transform="matrix(1 0 0 1 38.799 596.9323)"><tspan x="0" y="0" class="st13 st22 st23">商業設計系學會</tspan><tspan x="0" y="18" class="st13 st14 st17">「404 not found」設計展 主視覺統籌</tspan><tspan x="0" y="36" class="st24 st14 st25">● </tspan><tspan x="6.4" y="36" class="st24 st26 st17">擔任「404 not found」設計展主視覺統籌，負責展覽視覺設計，協助規劃展場動線。</tspan><tspan x="0" y="60" class="st13 st14 st17">「Design &amp; U」設計展 文宣組成員</tspan><tspan x="0" y="78.8" class="st24 st14 st25">● </tspan><tspan x="6.4" y="78.8" class="st24 st26 st17">擔任文宣組成員，整合與協調系內各組設計，規劃展覽行銷活動並協助建立展覽社群專頁。</tspan></text>
<rect x="438.9" y="604" class="st6" width="110.7" height="14.1"/>
<text transform="matrix(1 0 0 1 458.5576 611.0312)" class="st13 st14 st18">2017年12月-2018年1月</text>
<rect x="438.9" y="646.3" class="st6" width="110.7" height="14.1"/>
<text transform="matrix(1 0 0 1 463.5176 653.3007)" class="st13 st14 st18">2018年6月-2019年6月</text>
<line class="st21" x1="38.5" y1="684.2" x2="547.5" y2="684.2"/>
<text transform="matrix(1 0 0 1 38.7988 733.8228)" class="st19 st14 st20">技能與軟體</text>
<line class="st21" x1="38.8" y1="741.7" x2="548.2" y2="741.7"/>
<rect x="38.8" y="748.5" class="st6" width="291.3" height="36.5"/>
<text transform="matrix(1 0 0 1 38.799 758.147)"><tspan x="0" y="0" class="st13 st14 st25">●  </tspan><tspan x="7.7" y="0" class="st13 st14 st17">平面視覺設計軟體：</tspan><tspan x="109.7" y="0" class="st13 st26 st17">Illustrator｜Photoshop｜Indesign</tspan><tspan x="0" y="18.8" class="st13 st14 st25">●  </tspan><tspan x="7.7" y="18.8" class="st13 st14 st17">前端程式語言：</tspan><tspan x="87" y="18.8" class="st13 st26 st17">HTML｜CSS｜Bootstrap｜JQuery</tspan></text>
<rect x="335" y="748.5" class="st6" width="213.9" height="36.5"/>
<text transform="matrix(1 0 0 1 334.9567 758.1467)"><tspan x="0" y="0" class="st13 st14 st25">●  </tspan><tspan x="7.7" y="0" class="st13 st14 st17">介面視覺設計軟體：</tspan><tspan x="109.7" y="0" class="st13 st26 st17">Figma｜ XD｜</tspan><tspan x="0" y="18.8" class="st13 st26 st17">Sketch</tspan></text>
<line class="st21" x1="38.5" y1="784.9" x2="547.5" y2="784.9"/>
</svg>
