<?xml version="1.0" encoding="utf-8"?>
<!-- Generator: Adobe Illustrator 24.3.0, SVG Export Plug-In . SVG Version: 6.00 Build 0)  -->
<svg version="1.1" id="ab1e7a56-cb6c-4d24-9b54-44397aa31477"
	 xmlns="http://www.w3.org/2000/svg" xmlns:xlink="http://www.w3.org/1999/xlink" x="0px" y="0px" viewBox="0 0 522.7 47.9"
	 style="enable-background:new 0 0 522.7 47.9;" xml:space="preserve">
<style type="text/css">
	.st0{fill:#FFFFFF;}
</style>
<path class="st0" d="M27.9,13.1H16.1v-3c0.1-0.9-0.1-1.8-0.5-2.7c-0.4-0.4-0.9-0.6-1.5-0.6c-0.7,0-1.3,0.2-1.7,0.8
	C12,8.4,11.8,9.2,11.9,10c-0.1,1.1,0.2,2.1,0.7,3.1c0.4,0.7,1.6,1.5,3.6,2.5c5.6,2.8,9.2,5.1,10.7,6.9s2.2,4.7,2.2,8.6
	c0,2.9-0.4,5-1.2,6.4c-1.2,1.6-2.8,2.8-4.7,3.4c-2.6,1-5.3,1.5-8.1,1.4c-3,0.1-5.9-0.5-8.7-1.7c-2.4-1.1-4-2.4-4.7-4.1
	c-0.8-2.2-1.2-4.6-1.1-7v-2.7h11.8v4.9c-0.1,1,0.1,2,0.5,2.9c0.4,0.5,1.1,0.7,1.8,0.6c0.7,0.1,1.4-0.3,1.9-0.8
	c0.5-0.7,0.7-1.6,0.6-2.5c0-2.4-0.4-4-1.2-4.7c-1.9-1.4-3.8-2.7-5.9-3.7c-2.2-1.1-4.3-2.4-6.3-3.8c-1.1-0.9-2-2-2.5-3.3
	c-0.7-1.7-1.1-3.5-1-5.3c0-3.1,0.5-5.4,1.4-6.8C2.6,3,4.3,1.8,6.1,1.2c2.5-0.9,5.1-1.3,7.7-1.2c2.9-0.1,5.7,0.4,8.4,1.3
	c2.3,0.9,3.8,2,4.6,3.3c0.7,1.3,1.1,3.6,1.1,6.9V13.1z"/>
<path class="st0" d="M65.1,0.8v40.6H52.5v-17h-3.8v17.1H36V0.8h12.7v14.5h3.8V0.8H65.1z"/>
<path class="st0" d="M95.2,0.8l7.2,40.6h-13l-0.7-7.3h-4.5l-0.8,7.3h-13l6.5-40.6C76.9,0.8,95.2,0.8,95.2,0.8z M88.5,27
	c-0.7-4.6-1.3-10.3-1.9-17.1c-1.3,7.8-2.1,13.5-2.4,17.1H88.5z"/>
<path class="st0" d="M136.6,24.7c0.1,2.9-0.1,5.8-0.3,8.7c-0.2,1.7-1,3.4-2.2,4.6c-1.3,1.5-3,2.6-4.9,3.2c-2.3,0.8-4.8,1.2-7.2,1.1
	c-2.4,0-4.7-0.3-7-1.1c-1.9-0.6-3.6-1.7-5-3.2c-1.2-1.3-2-2.9-2.2-4.6c-0.3-2.9-0.4-5.8-0.4-8.8v-7c-0.1-2.9,0.1-5.8,0.4-8.7
	c0.2-1.7,1-3.3,2.2-4.6c1.3-1.5,3-2.6,4.9-3.2c2.3-0.8,4.8-1.2,7.2-1.1c2.4,0,4.7,0.3,7,1.1c1.9,0.6,3.6,1.7,5,3.2
	c1.2,1.3,2,2.9,2.3,4.6c0.3,2.9,0.4,5.8,0.4,8.8v7C136.8,24.7,136.6,24.7,136.6,24.7z M124,11.3c0.1-1.2,0-2.4-0.4-3.6
	c-0.3-0.6-0.9-0.9-1.6-0.8c-0.6,0-1.1,0.2-1.5,0.6s-0.5,1.7-0.5,3.8v19c-0.1,1.5,0,2.9,0.4,4.4c0.2,0.5,0.8,0.8,1.6,0.8
	c0.7,0.1,1.4-0.3,1.6-1c0.3-1.5,0.5-3,0.4-4.5V11.3z"/>
<path class="st0" d="M171.4,0.8l-9.2,25.9v14.7h-11.8V26.8l-8.9-25.9h11.7c1.3,5.3,2.4,10.6,3.1,16c0.7-4.3,1.8-9.7,3.5-16
	L171.4,0.8L171.4,0.8z"/>
<path class="st0" d="M205.5,0.8V28c0.1,2.2-0.1,4.3-0.4,6.5c-0.4,1.4-1.1,2.8-2.1,3.8c-1.3,1.4-2.9,2.4-4.7,3
	c-2.2,0.7-4.5,1.1-6.9,1c-2.6,0-5.2-0.4-7.7-1.2c-1.9-0.6-3.6-1.7-5-3.1c-1-1.1-1.7-2.6-2-4.1c-0.3-3-0.4-6-0.3-9v-24h12.8v30.4
	c-0.1,1.1,0,2.3,0.3,3.4c0.3,0.5,0.8,0.8,1.4,0.7c0.6,0.1,1.3-0.2,1.6-0.8c0.3-1.3,0.4-2.6,0.4-3.9v-30L205.5,0.8L205.5,0.8z"/>
<path class="st0" d="M241.8,0.8v40.6h-11.1L224.1,23v18.5h-10.6V0.8h10.6l7.1,18.3V0.8H241.8z"/>
<path class="st0" d="M289,0.8v40.6h-11.1V14l-4.4,27.4h-7.9L261,14.7v26.8h-11.1V0.8h16.4c0.5,2.4,1,5.3,1.5,8.6l1.8,10.3l2.9-19
	L289,0.8z"/>
<path class="st0" d="M319.1,0.8l7.2,40.6h-12.9l-0.7-7.3h-4.5l-0.8,7.3h-13.1l6.5-40.6C300.8,0.8,319.1,0.8,319.1,0.8z M312.4,27
	c-0.7-4.6-1.3-10.3-1.9-17.1c-1.3,7.8-2.1,13.5-2.4,17.1H312.4z"/>
<path class="st0" d="M328.7,45.3h34.8v2.6h-34.8V45.3z"/>
<path class="st0" d="M381.4,0.8v40.6h-12.7V0.8H381.4z"/>
<path class="st0" d="M417.8,0.8v40.6h-11.1L400.1,23v18.5h-10.6V0.8h10.6l7.1,18.3V0.8H417.8z"/>
<path class="st0" d="M451.5,0.8V9H444v32.5h-12.7V9h-7.5V0.8H451.5z"/>
<path class="st0" d="M457.5,0.8h9c4.1-0.1,8.1,0.1,12.1,0.6c2,0.3,3.9,1.4,5.2,2.9c1.3,1.6,2,4.1,2,7.6c0,3.2-0.5,5.3-1.4,6.4
	c-1,1.1-2.8,1.7-5.6,1.9c2.5,0.5,4.2,1.2,5,2.1c0.7,0.7,1.3,1.5,1.6,2.4c0.3,2,0.4,4,0.3,6v10.7H474V28c0-2.2-0.2-3.5-0.6-4
	s-1.5-0.8-3.2-0.8v18.3h-12.7L457.5,0.8L457.5,0.8z M470.1,7.8v9c1,0.1,2.1-0.1,3-0.5c0.6-0.3,0.9-1.4,0.9-3.2v-2.2
	c0.1-0.9-0.2-1.9-0.8-2.5C472.2,7.9,471.2,7.7,470.1,7.8L470.1,7.8z"/>
<path class="st0" d="M522.7,24.7c0.1,2.9-0.1,5.8-0.3,8.7c-0.2,1.7-1,3.4-2.2,4.6c-1.3,1.5-3,2.6-4.9,3.2c-2.3,0.8-4.8,1.2-7.2,1.1
	c-2.4,0-4.7-0.3-7-1.1c-1.9-0.6-3.6-1.7-5-3.2c-1.2-1.3-2-2.9-2.2-4.6c-0.3-2.9-0.4-5.8-0.4-8.8v-7c-0.1-2.9,0.1-5.8,0.3-8.7
	c0.2-1.7,1-3.3,2.2-4.6c1.3-1.5,3-2.6,4.9-3.2c2.3-0.8,4.8-1.2,7.2-1.1c2.4,0,4.7,0.3,7,1.1c1.9,0.6,3.6,1.7,5,3.2
	c1.2,1.3,2,2.9,2.3,4.6c0.3,2.9,0.4,5.8,0.4,8.8L522.7,24.7z M510,11.3c0.1-1.2,0-2.4-0.4-3.6c-0.3-0.6-0.9-0.9-1.5-0.8
	c-0.6,0-1.1,0.2-1.5,0.6c-0.3,0.4-0.5,1.7-0.5,3.8v19c-0.1,1.5,0,2.9,0.3,4.4c0.2,0.5,0.8,0.8,1.6,0.8c0.7,0.1,1.4-0.3,1.7-1
	c0.3-1.5,0.4-3,0.4-4.5L510,11.3z"/>
</svg>
